<svg width="259" height="40" viewBox="0 0 259 40" fill="none" xmlns="http://www.w3.org/2000/svg">
<path fill-rule="evenodd" clip-rule="evenodd" d="M7.5 10C7.5 8.61929 8.61929 7.5 10 7.5H13.75C15.1307 7.5 16.25 8.61929 16.25 10V30C16.25 31.3807 15.1307 32.5 13.75 32.5H10C8.61929 32.5 7.5 31.3807 7.5 30V10ZM13.75 10H10V30H13.75V10Z" fill="#00B37E"/>
<path fill-rule="evenodd" clip-rule="evenodd" d="M23.75 10C23.75 8.61929 24.8693 7.5 26.25 7.5H30C31.3807 7.5 32.5 8.61929 32.5 10V30C32.5 31.3807 31.3807 32.5 30 32.5H26.25C24.8693 32.5 23.75 31.3807 23.75 30V10ZM30 10H26.25V30H30V10Z" fill="#00B37E"/>
<path fill-rule="evenodd" clip-rule="evenodd" d="M30 12.5C30 11.8096 30.5596 11.25 31.25 11.25H35C35.663 11.25 36.2989 11.5134 36.7678 11.9822C37.2366 12.4511 37.5 13.087 37.5 13.75V26.25C37.5 26.913 37.2366 27.5489 36.7678 28.0178C36.2989 28.4866 35.663 28.75 35 28.75H31.25C30.5596 28.75 30 28.1904 30 27.5C30 26.8096 30.5596 26.25 31.25 26.25H35L35 13.75L31.25 13.75C30.5596 13.75 30 13.1904 30 12.5Z" fill="#00B37E"/>
<path fill-rule="evenodd" clip-rule="evenodd" d="M3.23223 11.9822C3.70107 11.5134 4.33696 11.25 5 11.25H8.75C9.44036 11.25 10 11.8096 10 12.5C10 13.1904 9.44036 13.75 8.75 13.75L5 13.75V26.25H8.75C9.44036 26.25 10 26.8096 10 27.5C10 28.1904 9.44036 28.75 8.75 28.75H5C4.33696 28.75 3.70108 28.4866 3.23223 28.0178C2.76339 27.5489 2.5 26.913 2.5 26.25V13.75C2.5 13.087 2.76339 12.4511 3.23223 11.9822Z" fill="#00B37E"/>
<path fill-rule="evenodd" clip-rule="evenodd" d="M13.75 20C13.75 19.3096 14.3096 18.75 15 18.75H25C25.6904 18.75 26.25 19.3096 26.25 20C26.25 20.6904 25.6904 21.25 25 21.25H15C14.3096 21.25 13.75 20.6904 13.75 20Z" fill="#00B37E"/>
<path fill-rule="evenodd" clip-rule="evenodd" d="M35 20C35 19.3096 35.5596 18.75 36.25 18.75H38.75C39.4404 18.75 40 19.3096 40 20C40 20.6904 39.4404 21.25 38.75 21.25H36.25C35.5596 21.25 35 20.6904 35 20Z" fill="#00B37E"/>
<path fill-rule="evenodd" clip-rule="evenodd" d="M0 20C0 19.3096 0.559644 18.75 1.25 18.75H3.75C4.44036 18.75 5 19.3096 5 20C5 20.6904 4.44036 21.25 3.75 21.25H1.25C0.559644 21.25 0 20.6904 0 20Z" fill="#00B37E"/>
<path d="M65.6621 22.8965H69.75C69.668 24.2363 69.2988 25.4258 68.6426 26.4648C67.9954 27.5039 67.0885 28.3151 65.9219 28.8984C64.7643 29.4818 63.3698 29.7734 61.7383 29.7734C60.4622 29.7734 59.3184 29.5547 58.3066 29.1172C57.2949 28.6706 56.429 28.0326 55.709 27.2031C54.998 26.3737 54.4557 25.3711 54.082 24.1953C53.7083 23.0195 53.5215 21.7025 53.5215 20.2441V18.8633C53.5215 17.4049 53.7129 16.0879 54.0957 14.9121C54.4876 13.7272 55.0436 12.7201 55.7637 11.8906C56.4928 11.0612 57.3633 10.4232 58.375 9.97656C59.3867 9.52995 60.5169 9.30664 61.7656 9.30664C63.4245 9.30664 64.8236 9.60742 65.9629 10.209C67.1113 10.8105 68 11.64 68.6289 12.6973C69.2669 13.7546 69.6497 14.9577 69.7773 16.3066H65.6758C65.6302 15.5046 65.4707 14.8255 65.1973 14.2695C64.9238 13.7044 64.5091 13.2806 63.9531 12.998C63.4062 12.7064 62.6771 12.5605 61.7656 12.5605C61.082 12.5605 60.485 12.6882 59.9746 12.9434C59.4642 13.1986 59.0358 13.5859 58.6895 14.1055C58.3431 14.625 58.0833 15.2812 57.9102 16.0742C57.7461 16.8581 57.6641 17.7786 57.6641 18.8359V20.2441C57.6641 21.2741 57.7415 22.181 57.8965 22.9648C58.0514 23.7396 58.2884 24.3958 58.6074 24.9336C58.9355 25.4622 59.3548 25.8633 59.8652 26.1367C60.3848 26.401 61.0091 26.5332 61.7383 26.5332C62.5951 26.5332 63.3014 26.3965 63.8574 26.123C64.4134 25.8496 64.8372 25.444 65.1289 24.9062C65.4297 24.3685 65.6074 23.6986 65.6621 22.8965ZM76.1348 17.9336V29.5H72.1973V14.707H75.9023L76.1348 17.9336ZM80.5918 14.6113L80.5234 18.2617C80.332 18.2344 80.0996 18.2116 79.8262 18.1934C79.5618 18.166 79.3203 18.1523 79.1016 18.1523C78.5456 18.1523 78.0625 18.2253 77.6523 18.3711C77.2513 18.5078 76.9141 18.7129 76.6406 18.9863C76.3763 19.2598 76.1758 19.5924 76.0391 19.9844C75.9115 20.3763 75.8385 20.8229 75.8203 21.3242L75.0273 21.0781C75.0273 20.1211 75.123 19.2415 75.3145 18.4395C75.5059 17.6283 75.7839 16.9219 76.1484 16.3203C76.5221 15.7188 76.9779 15.2539 77.5156 14.9258C78.0534 14.5977 78.6686 14.4336 79.3613 14.4336C79.5801 14.4336 79.8034 14.4518 80.0312 14.4883C80.2591 14.5156 80.446 14.5566 80.5918 14.6113ZM87.0859 27.832L91.0098 14.707H95.2344L89.2871 31.7285C89.1595 32.1022 88.9863 32.5033 88.7676 32.9316C88.5579 33.36 88.2708 33.7656 87.9062 34.1484C87.5508 34.5404 87.0996 34.8594 86.5527 35.1055C86.015 35.3516 85.3542 35.4746 84.5703 35.4746C84.1966 35.4746 83.8913 35.4518 83.6543 35.4062C83.4173 35.3607 83.1348 35.2969 82.8066 35.2148V32.3301C82.9069 32.3301 83.0117 32.3301 83.1211 32.3301C83.2305 32.3392 83.3353 32.3438 83.4355 32.3438C83.9551 32.3438 84.3789 32.2845 84.707 32.166C85.0352 32.0475 85.2995 31.8652 85.5 31.6191C85.7005 31.3822 85.86 31.0723 85.9785 30.6895L87.0859 27.832ZM85.4453 14.707L88.6582 25.4258L89.2188 29.5957L86.5391 29.8828L81.2207 14.707H85.4453ZM104.805 25.4121C104.805 25.1296 104.723 24.8743 104.559 24.6465C104.395 24.4186 104.089 24.209 103.643 24.0176C103.205 23.8171 102.572 23.6348 101.742 23.4707C100.995 23.3066 100.298 23.1016 99.6504 22.8555C99.0124 22.6003 98.4564 22.2949 97.9824 21.9395C97.5176 21.584 97.153 21.1647 96.8887 20.6816C96.6243 20.1895 96.4922 19.6289 96.4922 19C96.4922 18.3802 96.6243 17.7969 96.8887 17.25C97.1621 16.7031 97.5495 16.2201 98.0508 15.8008C98.5612 15.3724 99.181 15.0397 99.9102 14.8027C100.648 14.5566 101.478 14.4336 102.398 14.4336C103.684 14.4336 104.786 14.6387 105.707 15.0488C106.637 15.459 107.348 16.0241 107.84 16.7441C108.341 17.4551 108.592 18.2663 108.592 19.1777H104.654C104.654 18.7949 104.572 18.4531 104.408 18.1523C104.253 17.8424 104.007 17.6009 103.67 17.4277C103.342 17.2454 102.913 17.1543 102.385 17.1543C101.947 17.1543 101.569 17.2318 101.25 17.3867C100.931 17.5326 100.685 17.7331 100.512 17.9883C100.348 18.2344 100.266 18.5078 100.266 18.8086C100.266 19.0365 100.311 19.2415 100.402 19.4238C100.503 19.597 100.662 19.7565 100.881 19.9023C101.1 20.0482 101.382 20.1849 101.729 20.3125C102.084 20.431 102.521 20.5404 103.041 20.6406C104.107 20.8594 105.06 21.1465 105.898 21.502C106.737 21.8483 107.402 22.3223 107.895 22.9238C108.387 23.5163 108.633 24.2956 108.633 25.2617C108.633 25.918 108.487 26.5195 108.195 27.0664C107.904 27.6133 107.484 28.0918 106.938 28.502C106.391 28.903 105.734 29.2174 104.969 29.4453C104.212 29.6641 103.36 29.7734 102.412 29.7734C101.036 29.7734 99.8691 29.5273 98.9121 29.0352C97.9642 28.543 97.2441 27.9186 96.752 27.1621C96.2689 26.3965 96.0273 25.6126 96.0273 24.8105H99.7598C99.778 25.3483 99.9147 25.7812 100.17 26.1094C100.434 26.4375 100.767 26.6745 101.168 26.8203C101.578 26.9661 102.02 27.0391 102.494 27.0391C103.005 27.0391 103.428 26.9707 103.766 26.834C104.103 26.6882 104.358 26.4967 104.531 26.2598C104.714 26.0137 104.805 25.7311 104.805 25.4121ZM124.547 9.59375V11.7129L116.85 29.5H112.693L120.391 12.6699H110.479V9.59375H124.547ZM142.58 12.998L137.166 29.5H132.805L140.201 9.59375H142.977L142.58 12.998ZM147.078 29.5L141.65 12.998L141.213 9.59375H144.016L151.453 29.5H147.078ZM146.832 22.0898V25.3027H136.318V22.0898H146.832ZM159.164 26.6973C159.647 26.6973 160.076 26.6061 160.449 26.4238C160.823 26.2324 161.115 25.9681 161.324 25.6309C161.543 25.2845 161.657 24.8789 161.666 24.4141H165.371C165.362 25.4531 165.084 26.3783 164.537 27.1895C163.99 27.9915 163.257 28.625 162.336 29.0898C161.415 29.5456 160.385 29.7734 159.246 29.7734C158.098 29.7734 157.095 29.582 156.238 29.1992C155.391 28.8164 154.684 28.2878 154.119 27.6133C153.554 26.9297 153.13 26.1367 152.848 25.2344C152.565 24.3229 152.424 23.3477 152.424 22.3086V21.9121C152.424 20.8639 152.565 19.8887 152.848 18.9863C153.13 18.0749 153.554 17.2819 154.119 16.6074C154.684 15.9238 155.391 15.3906 156.238 15.0078C157.086 14.625 158.079 14.4336 159.219 14.4336C160.431 14.4336 161.493 14.666 162.404 15.1309C163.325 15.5957 164.045 16.2611 164.564 17.127C165.093 17.9837 165.362 19 165.371 20.1758H161.666C161.657 19.6836 161.552 19.237 161.352 18.8359C161.16 18.4349 160.878 18.1159 160.504 17.8789C160.139 17.6328 159.688 17.5098 159.15 17.5098C158.576 17.5098 158.107 17.6328 157.742 17.8789C157.378 18.1159 157.095 18.444 156.895 18.8633C156.694 19.2734 156.553 19.7428 156.471 20.2715C156.398 20.791 156.361 21.3379 156.361 21.9121V22.3086C156.361 22.8828 156.398 23.4342 156.471 23.9629C156.544 24.4915 156.68 24.9609 156.881 25.3711C157.09 25.7812 157.378 26.1048 157.742 26.3418C158.107 26.5788 158.581 26.6973 159.164 26.6973ZM175.639 26.1641V19.5742C175.639 19.1003 175.561 18.6947 175.406 18.3574C175.251 18.0111 175.01 17.7422 174.682 17.5508C174.363 17.3594 173.948 17.2637 173.438 17.2637C173 17.2637 172.622 17.3411 172.303 17.4961C171.984 17.6419 171.738 17.8561 171.564 18.1387C171.391 18.4121 171.305 18.7357 171.305 19.1094H167.367C167.367 18.4805 167.513 17.8835 167.805 17.3184C168.096 16.7533 168.52 16.2565 169.076 15.8281C169.632 15.3906 170.293 15.0488 171.059 14.8027C171.833 14.5566 172.699 14.4336 173.656 14.4336C174.805 14.4336 175.826 14.625 176.719 15.0078C177.612 15.3906 178.314 15.9648 178.824 16.7305C179.344 17.4961 179.604 18.4531 179.604 19.6016V25.9316C179.604 26.7428 179.654 27.4082 179.754 27.9277C179.854 28.4382 180 28.8848 180.191 29.2676V29.5H176.213C176.021 29.099 175.876 28.5977 175.775 27.9961C175.684 27.3854 175.639 26.7747 175.639 26.1641ZM176.158 20.4902L176.186 22.7188H173.984C173.465 22.7188 173.014 22.778 172.631 22.8965C172.248 23.015 171.934 23.1836 171.688 23.4023C171.441 23.612 171.259 23.8581 171.141 24.1406C171.031 24.4232 170.977 24.7331 170.977 25.0703C170.977 25.4076 171.054 25.7129 171.209 25.9863C171.364 26.2507 171.587 26.4603 171.879 26.6152C172.171 26.7611 172.512 26.834 172.904 26.834C173.497 26.834 174.012 26.7155 174.449 26.4785C174.887 26.2415 175.224 25.9499 175.461 25.6035C175.707 25.2572 175.835 24.929 175.844 24.6191L176.883 26.2871C176.737 26.6608 176.536 27.0482 176.281 27.4492C176.035 27.8503 175.721 28.2285 175.338 28.584C174.955 28.9303 174.495 29.2174 173.957 29.4453C173.419 29.6641 172.781 29.7734 172.043 29.7734C171.104 29.7734 170.252 29.5866 169.486 29.2129C168.73 28.8301 168.128 28.306 167.682 27.6406C167.244 26.9661 167.025 26.2005 167.025 25.3438C167.025 24.569 167.171 23.8809 167.463 23.2793C167.755 22.6777 168.183 22.1719 168.748 21.7617C169.322 21.3424 170.038 21.028 170.895 20.8184C171.751 20.5996 172.745 20.4902 173.875 20.4902H176.158ZM191.375 26.2734V8.5H195.34V29.5H191.771L191.375 26.2734ZM182.023 22.2812V21.9941C182.023 20.8639 182.151 19.8385 182.406 18.918C182.661 17.9883 183.035 17.1908 183.527 16.5254C184.02 15.86 184.626 15.3451 185.346 14.9805C186.066 14.6159 186.886 14.4336 187.807 14.4336C188.673 14.4336 189.429 14.6159 190.076 14.9805C190.732 15.3451 191.288 15.8646 191.744 16.5391C192.209 17.2044 192.583 17.9928 192.865 18.9043C193.148 19.8066 193.353 20.7956 193.48 21.8711V22.5C193.353 23.5299 193.148 24.487 192.865 25.3711C192.583 26.2552 192.209 27.0299 191.744 27.6953C191.288 28.3516 190.732 28.862 190.076 29.2266C189.42 29.5911 188.654 29.7734 187.779 29.7734C186.859 29.7734 186.038 29.5866 185.318 29.2129C184.607 28.8392 184.006 28.3151 183.514 27.6406C183.031 26.9661 182.661 26.1732 182.406 25.2617C182.151 24.3503 182.023 23.3568 182.023 22.2812ZM185.961 21.9941V22.2812C185.961 22.8919 186.007 23.4616 186.098 23.9902C186.198 24.5189 186.357 24.9883 186.576 25.3984C186.804 25.7995 187.096 26.1139 187.451 26.3418C187.816 26.5605 188.258 26.6699 188.777 26.6699C189.452 26.6699 190.008 26.5195 190.445 26.2188C190.883 25.9089 191.215 25.485 191.443 24.9473C191.68 24.4095 191.817 23.7897 191.854 23.0879V21.2969C191.826 20.7227 191.744 20.2077 191.607 19.752C191.48 19.2871 191.288 18.8906 191.033 18.5625C190.787 18.2344 190.477 17.9792 190.104 17.7969C189.739 17.6146 189.306 17.5234 188.805 17.5234C188.294 17.5234 187.857 17.6419 187.492 17.8789C187.128 18.1068 186.831 18.4212 186.604 18.8223C186.385 19.2233 186.221 19.6973 186.111 20.2441C186.011 20.7819 185.961 21.3652 185.961 21.9941ZM205.225 29.7734C204.076 29.7734 203.046 29.5911 202.135 29.2266C201.223 28.8529 200.449 28.3379 199.811 27.6816C199.182 27.0254 198.699 26.2643 198.361 25.3984C198.024 24.5234 197.855 23.5938 197.855 22.6094V22.0625C197.855 20.9414 198.015 19.916 198.334 18.9863C198.653 18.0566 199.109 17.25 199.701 16.5664C200.303 15.8828 201.032 15.3587 201.889 14.9941C202.745 14.6204 203.712 14.4336 204.787 14.4336C205.835 14.4336 206.765 14.6068 207.576 14.9531C208.387 15.2995 209.066 15.7917 209.613 16.4297C210.169 17.0677 210.589 17.8333 210.871 18.7266C211.154 19.6107 211.295 20.5951 211.295 21.6797V23.3203H199.537V20.6953H207.426V20.3945C207.426 19.8477 207.326 19.36 207.125 18.9316C206.934 18.4941 206.642 18.1478 206.25 17.8926C205.858 17.6374 205.357 17.5098 204.746 17.5098C204.227 17.5098 203.78 17.6237 203.406 17.8516C203.033 18.0794 202.727 18.3984 202.49 18.8086C202.262 19.2188 202.089 19.7018 201.971 20.2578C201.861 20.8047 201.807 21.4062 201.807 22.0625V22.6094C201.807 23.2018 201.889 23.7487 202.053 24.25C202.226 24.7513 202.467 25.1842 202.777 25.5488C203.096 25.9134 203.479 26.196 203.926 26.3965C204.382 26.597 204.896 26.6973 205.471 26.6973C206.182 26.6973 206.842 26.5605 207.453 26.2871C208.073 26.0046 208.606 25.5807 209.053 25.0156L210.967 27.0938C210.657 27.5404 210.233 27.9688 209.695 28.3789C209.167 28.7891 208.529 29.1263 207.781 29.3906C207.034 29.6458 206.182 29.7734 205.225 29.7734ZM217.475 17.7695V29.5H213.523V14.707H217.229L217.475 17.7695ZM216.928 21.584H215.834C215.834 20.554 215.957 19.6061 216.203 18.7402C216.458 17.8652 216.827 17.1087 217.311 16.4707C217.803 15.8236 218.409 15.3223 219.129 14.9668C219.849 14.6113 220.683 14.4336 221.631 14.4336C222.287 14.4336 222.889 14.5339 223.436 14.7344C223.982 14.9258 224.452 15.2311 224.844 15.6504C225.245 16.0605 225.555 16.5983 225.773 17.2637C225.992 17.9199 226.102 18.7083 226.102 19.6289V29.5H222.164V20.0664C222.164 19.3919 222.073 18.8724 221.891 18.5078C221.708 18.1432 221.449 17.888 221.111 17.7422C220.783 17.5964 220.387 17.5234 219.922 17.5234C219.411 17.5234 218.965 17.6283 218.582 17.8379C218.208 18.0475 217.898 18.3392 217.652 18.7129C217.406 19.0775 217.224 19.5059 217.105 19.998C216.987 20.4902 216.928 21.0189 216.928 21.584ZM225.732 21.1328L224.324 21.3105C224.324 20.3444 224.443 19.4466 224.68 18.6172C224.926 17.7878 225.286 17.0586 225.76 16.4297C226.243 15.8008 226.84 15.3132 227.551 14.9668C228.262 14.6113 229.082 14.4336 230.012 14.4336C230.723 14.4336 231.37 14.5384 231.953 14.748C232.536 14.9486 233.033 15.2721 233.443 15.7188C233.863 16.1562 234.182 16.7305 234.4 17.4414C234.628 18.1523 234.742 19.0228 234.742 20.0527V29.5H230.791V20.0527C230.791 19.3691 230.7 18.8496 230.518 18.4941C230.344 18.1296 230.089 17.8789 229.752 17.7422C229.424 17.5964 229.032 17.5234 228.576 17.5234C228.102 17.5234 227.688 17.6191 227.332 17.8105C226.977 17.9928 226.68 18.248 226.443 18.5762C226.206 18.9043 226.029 19.2871 225.91 19.7246C225.792 20.153 225.732 20.6224 225.732 21.1328ZM241.947 14.707V29.5H237.996V14.707H241.947ZM237.75 10.8516C237.75 10.2773 237.951 9.80339 238.352 9.42969C238.753 9.05599 239.29 8.86914 239.965 8.86914C240.63 8.86914 241.163 9.05599 241.564 9.42969C241.975 9.80339 242.18 10.2773 242.18 10.8516C242.18 11.4258 241.975 11.8997 241.564 12.2734C241.163 12.6471 240.63 12.834 239.965 12.834C239.29 12.834 238.753 12.6471 238.352 12.2734C237.951 11.8997 237.75 11.4258 237.75 10.8516ZM253.186 26.1641V19.5742C253.186 19.1003 253.108 18.6947 252.953 18.3574C252.798 18.0111 252.557 17.7422 252.229 17.5508C251.91 17.3594 251.495 17.2637 250.984 17.2637C250.547 17.2637 250.169 17.3411 249.85 17.4961C249.531 17.6419 249.285 17.8561 249.111 18.1387C248.938 18.4121 248.852 18.7357 248.852 19.1094H244.914C244.914 18.4805 245.06 17.8835 245.352 17.3184C245.643 16.7533 246.067 16.2565 246.623 15.8281C247.179 15.3906 247.84 15.0488 248.605 14.8027C249.38 14.5566 250.246 14.4336 251.203 14.4336C252.352 14.4336 253.372 14.625 254.266 15.0078C255.159 15.3906 255.861 15.9648 256.371 16.7305C256.891 17.4961 257.15 18.4531 257.15 19.6016V25.9316C257.15 26.7428 257.201 27.4082 257.301 27.9277C257.401 28.4382 257.547 28.8848 257.738 29.2676V29.5H253.76C253.568 29.099 253.423 28.5977 253.322 27.9961C253.231 27.3854 253.186 26.7747 253.186 26.1641ZM253.705 20.4902L253.732 22.7188H251.531C251.012 22.7188 250.561 22.778 250.178 22.8965C249.795 23.015 249.48 23.1836 249.234 23.4023C248.988 23.612 248.806 23.8581 248.688 24.1406C248.578 24.4232 248.523 24.7331 248.523 25.0703C248.523 25.4076 248.601 25.7129 248.756 25.9863C248.911 26.2507 249.134 26.4603 249.426 26.6152C249.717 26.7611 250.059 26.834 250.451 26.834C251.044 26.834 251.559 26.7155 251.996 26.4785C252.434 26.2415 252.771 25.9499 253.008 25.6035C253.254 25.2572 253.382 24.929 253.391 24.6191L254.43 26.2871C254.284 26.6608 254.083 27.0482 253.828 27.4492C253.582 27.8503 253.268 28.2285 252.885 28.584C252.502 28.9303 252.042 29.2174 251.504 29.4453C250.966 29.6641 250.328 29.7734 249.59 29.7734C248.651 29.7734 247.799 29.5866 247.033 29.2129C246.277 28.8301 245.675 28.306 245.229 27.6406C244.791 26.9661 244.572 26.2005 244.572 25.3438C244.572 24.569 244.718 23.8809 245.01 23.2793C245.301 22.6777 245.73 22.1719 246.295 21.7617C246.869 21.3424 247.585 21.028 248.441 20.8184C249.298 20.5996 250.292 20.4902 251.422 20.4902H253.705Z" fill="white"/>
</svg>
