<svg width="155" height="40" viewBox="0 0 155 40" fill="none" xmlns="http://www.w3.org/2000/svg">
<g clip-path="url(#clip0_1_128)">
<path fill-rule="evenodd" clip-rule="evenodd" d="M8 10C8 8.61929 9.11929 7.5 10.5 7.5H14.25C15.6307 7.5 16.75 8.61929 16.75 10V30C16.75 31.3807 15.6307 32.5 14.25 32.5H10.5C9.11929 32.5 8 31.3807 8 30V10ZM14.25 10H10.5V30H14.25V10Z" fill="#719CE9"/>
<path fill-rule="evenodd" clip-rule="evenodd" d="M24.25 10C24.25 8.61929 25.3693 7.5 26.75 7.5H30.5C31.8807 7.5 33 8.61929 33 10V30C33 31.3807 31.8807 32.5 30.5 32.5H26.75C25.3693 32.5 24.25 31.3807 24.25 30V10ZM30.5 10H26.75V30H30.5V10Z" fill="#719CE9"/>
<path fill-rule="evenodd" clip-rule="evenodd" d="M30.5 12.5C30.5 11.8096 31.0596 11.25 31.75 11.25H35.5C36.163 11.25 36.7989 11.5134 37.2678 11.9822C37.7366 12.4511 38 13.087 38 13.75V26.25C38 26.913 37.7366 27.5489 37.2678 28.0178C36.7989 28.4866 36.163 28.75 35.5 28.75H31.75C31.0596 28.75 30.5 28.1904 30.5 27.5C30.5 26.8096 31.0596 26.25 31.75 26.25H35.5L35.5 13.75L31.75 13.75C31.0596 13.75 30.5 13.1904 30.5 12.5Z" fill="#719CE9"/>
<path fill-rule="evenodd" clip-rule="evenodd" d="M3.73223 11.9822C4.20107 11.5134 4.83696 11.25 5.5 11.25H9.25C9.94036 11.25 10.5 11.8096 10.5 12.5C10.5 13.1904 9.94036 13.75 9.25 13.75L5.5 13.75V26.25H9.25C9.94036 26.25 10.5 26.8096 10.5 27.5C10.5 28.1904 9.94036 28.75 9.25 28.75H5.5C4.83696 28.75 4.20108 28.4866 3.73223 28.0178C3.26339 27.5489 3 26.913 3 26.25V13.75C3 13.087 3.26339 12.4511 3.73223 11.9822Z" fill="#719CE9"/>
<path fill-rule="evenodd" clip-rule="evenodd" d="M14.25 20C14.25 19.3096 14.8096 18.75 15.5 18.75H25.5C26.1904 18.75 26.75 19.3096 26.75 20C26.75 20.6904 26.1904 21.25 25.5 21.25H15.5C14.8096 21.25 14.25 20.6904 14.25 20Z" fill="#719CE9"/>
<path fill-rule="evenodd" clip-rule="evenodd" d="M35.5 20C35.5 19.3096 36.0596 18.75 36.75 18.75H39.25C39.9404 18.75 40.5 19.3096 40.5 20C40.5 20.6904 39.9404 21.25 39.25 21.25H36.75C36.0596 21.25 35.5 20.6904 35.5 20Z" fill="#719CE9"/>
<path fill-rule="evenodd" clip-rule="evenodd" d="M0.5 20C0.5 19.3096 1.05964 18.75 1.75 18.75H4.25C4.94036 18.75 5.5 19.3096 5.5 20C5.5 20.6904 4.94036 21.25 4.25 21.25H1.75C1.05964 21.25 0.5 20.6904 0.5 20Z" fill="#719CE9"/>
</g>
<path d="M64.9453 24.291C64.9453 23.9355 64.8906 23.6165 64.7812 23.334C64.681 23.0423 64.4896 22.778 64.207 22.541C63.9245 22.2949 63.528 22.0534 63.0176 21.8164C62.5072 21.5794 61.8464 21.3333 61.0352 21.0781C60.1328 20.7865 59.276 20.4583 58.4648 20.0938C57.6628 19.7292 56.9518 19.3053 56.332 18.8223C55.7214 18.3301 55.2383 17.7604 54.8828 17.1133C54.5365 16.4661 54.3633 15.7142 54.3633 14.8574C54.3633 14.028 54.5456 13.276 54.9102 12.6016C55.2747 11.918 55.7852 11.3346 56.4414 10.8516C57.0977 10.3594 57.8724 9.98112 58.7656 9.7168C59.668 9.45247 60.6569 9.32031 61.7324 9.32031C63.1999 9.32031 64.4805 9.58464 65.5742 10.1133C66.668 10.6419 67.5156 11.3665 68.1172 12.2871C68.7279 13.2077 69.0332 14.2604 69.0332 15.4453H64.959C64.959 14.862 64.8359 14.3516 64.5898 13.9141C64.3529 13.4674 63.9883 13.1165 63.4961 12.8613C63.013 12.6061 62.4023 12.4785 61.6641 12.4785C60.9531 12.4785 60.3607 12.5879 59.8867 12.8066C59.4128 13.0163 59.0573 13.3034 58.8203 13.668C58.5833 14.0234 58.4648 14.4245 58.4648 14.8711C58.4648 15.2083 58.5469 15.5137 58.7109 15.7871C58.8841 16.0605 59.1393 16.3158 59.4766 16.5527C59.8138 16.7897 60.2285 17.013 60.7207 17.2227C61.2129 17.4323 61.7826 17.6374 62.4297 17.8379C63.5143 18.166 64.4668 18.5352 65.2871 18.9453C66.1165 19.3555 66.8092 19.8158 67.3652 20.3262C67.9212 20.8366 68.3405 21.4154 68.623 22.0625C68.9056 22.7096 69.0469 23.4434 69.0469 24.2637C69.0469 25.1296 68.8783 25.9043 68.541 26.5879C68.2038 27.2715 67.7161 27.8503 67.0781 28.3242C66.4401 28.7982 65.679 29.1582 64.7949 29.4043C63.9108 29.6504 62.9219 29.7734 61.8281 29.7734C60.8438 29.7734 59.873 29.6458 58.916 29.3906C57.959 29.1263 57.0885 28.7298 56.3047 28.2012C55.5299 27.6725 54.9102 26.998 54.4453 26.1777C53.9805 25.3574 53.748 24.3867 53.748 23.2656H57.8633C57.8633 23.8854 57.959 24.4095 58.1504 24.8379C58.3418 25.2663 58.6107 25.6126 58.957 25.877C59.3125 26.1413 59.7318 26.3327 60.2148 26.4512C60.707 26.5697 61.2448 26.6289 61.8281 26.6289C62.5391 26.6289 63.1224 26.5286 63.5781 26.3281C64.043 26.1276 64.3848 25.8496 64.6035 25.4941C64.8314 25.1387 64.9453 24.7376 64.9453 24.291ZM78.8359 14.707V17.4961H70.2227V14.707H78.8359ZM72.3555 11.0566H76.293V25.043C76.293 25.4714 76.3477 25.7995 76.457 26.0273C76.5755 26.2552 76.7487 26.4147 76.9766 26.5059C77.2044 26.5879 77.4915 26.6289 77.8379 26.6289C78.084 26.6289 78.3027 26.6198 78.4941 26.6016C78.6947 26.5742 78.8633 26.5469 79 26.5195L79.0137 29.418C78.6764 29.5273 78.3118 29.6139 77.9199 29.6777C77.528 29.7415 77.0951 29.7734 76.6211 29.7734C75.7552 29.7734 74.9987 29.6322 74.3516 29.3496C73.7135 29.0579 73.2214 28.5931 72.875 27.9551C72.5286 27.3171 72.3555 26.4785 72.3555 25.4395V11.0566ZM89.0625 26.1641V19.5742C89.0625 19.1003 88.985 18.6947 88.8301 18.3574C88.6751 18.0111 88.4336 17.7422 88.1055 17.5508C87.7865 17.3594 87.3717 17.2637 86.8613 17.2637C86.4238 17.2637 86.0456 17.3411 85.7266 17.4961C85.4076 17.6419 85.1615 17.8561 84.9883 18.1387C84.8151 18.4121 84.7285 18.7357 84.7285 19.1094H80.791C80.791 18.4805 80.9368 17.8835 81.2285 17.3184C81.5202 16.7533 81.944 16.2565 82.5 15.8281C83.056 15.3906 83.7168 15.0488 84.4824 14.8027C85.2572 14.5566 86.123 14.4336 87.0801 14.4336C88.2285 14.4336 89.2493 14.625 90.1426 15.0078C91.0358 15.3906 91.7376 15.9648 92.248 16.7305C92.7676 17.4961 93.0273 18.4531 93.0273 19.6016V25.9316C93.0273 26.7428 93.0775 27.4082 93.1777 27.9277C93.278 28.4382 93.4238 28.8848 93.6152 29.2676V29.5H89.6367C89.4453 29.099 89.2995 28.5977 89.1992 27.9961C89.1081 27.3854 89.0625 26.7747 89.0625 26.1641ZM89.582 20.4902L89.6094 22.7188H87.4082C86.8887 22.7188 86.4375 22.778 86.0547 22.8965C85.6719 23.015 85.3574 23.1836 85.1113 23.4023C84.8652 23.612 84.6829 23.8581 84.5645 24.1406C84.4551 24.4232 84.4004 24.7331 84.4004 25.0703C84.4004 25.4076 84.4779 25.7129 84.6328 25.9863C84.7878 26.2507 85.0111 26.4603 85.3027 26.6152C85.5944 26.7611 85.9362 26.834 86.3281 26.834C86.9206 26.834 87.4355 26.7155 87.873 26.4785C88.3105 26.2415 88.6478 25.9499 88.8848 25.6035C89.1309 25.2572 89.2585 24.929 89.2676 24.6191L90.3066 26.2871C90.1608 26.6608 89.9603 27.0482 89.7051 27.4492C89.459 27.8503 89.1445 28.2285 88.7617 28.584C88.3789 28.9303 87.9186 29.2174 87.3809 29.4453C86.8431 29.6641 86.2051 29.7734 85.4668 29.7734C84.528 29.7734 83.6758 29.5866 82.9102 29.2129C82.1536 28.8301 81.5521 28.306 81.1055 27.6406C80.668 26.9661 80.4492 26.2005 80.4492 25.3438C80.4492 24.569 80.5951 23.8809 80.8867 23.2793C81.1784 22.6777 81.6068 22.1719 82.1719 21.7617C82.7461 21.3424 83.4616 21.028 84.3184 20.8184C85.1751 20.5996 86.1686 20.4902 87.2988 20.4902H89.582ZM100 17.9336V29.5H96.0625V14.707H99.7676L100 17.9336ZM104.457 14.6113L104.389 18.2617C104.197 18.2344 103.965 18.2116 103.691 18.1934C103.427 18.166 103.186 18.1523 102.967 18.1523C102.411 18.1523 101.928 18.2253 101.518 18.3711C101.117 18.5078 100.779 18.7129 100.506 18.9863C100.242 19.2598 100.041 19.5924 99.9043 19.9844C99.7767 20.3763 99.7038 20.8229 99.6855 21.3242L98.8926 21.0781C98.8926 20.1211 98.9883 19.2415 99.1797 18.4395C99.3711 17.6283 99.6491 16.9219 100.014 16.3203C100.387 15.7188 100.843 15.2539 101.381 14.9258C101.919 14.5977 102.534 14.4336 103.227 14.4336C103.445 14.4336 103.669 14.4518 103.896 14.4883C104.124 14.5156 104.311 14.5566 104.457 14.6113ZM114.246 14.707V17.4961H105.633V14.707H114.246ZM107.766 11.0566H111.703V25.043C111.703 25.4714 111.758 25.7995 111.867 26.0273C111.986 26.2552 112.159 26.4147 112.387 26.5059C112.615 26.5879 112.902 26.6289 113.248 26.6289C113.494 26.6289 113.713 26.6198 113.904 26.6016C114.105 26.5742 114.273 26.5469 114.41 26.5195L114.424 29.418C114.087 29.5273 113.722 29.6139 113.33 29.6777C112.938 29.7415 112.505 29.7734 112.031 29.7734C111.165 29.7734 110.409 29.6322 109.762 29.3496C109.124 29.0579 108.632 28.5931 108.285 27.9551C107.939 27.3171 107.766 26.4785 107.766 25.4395V11.0566ZM127.809 9.59375V29.5H123.707V9.59375H127.809ZM135.738 18.0977V21.2969H126.688V18.0977H135.738ZM136.695 9.59375V12.8066H126.688V9.59375H136.695ZM142.984 14.707V29.5H139.033V14.707H142.984ZM138.787 10.8516C138.787 10.2773 138.988 9.80339 139.389 9.42969C139.79 9.05599 140.327 8.86914 141.002 8.86914C141.667 8.86914 142.201 9.05599 142.602 9.42969C143.012 9.80339 143.217 10.2773 143.217 10.8516C143.217 11.4258 143.012 11.8997 142.602 12.2734C142.201 12.6471 141.667 12.834 141.002 12.834C140.327 12.834 139.79 12.6471 139.389 12.2734C138.988 11.8997 138.787 11.4258 138.787 10.8516ZM153.484 14.707V17.4961H144.871V14.707H153.484ZM147.004 11.0566H150.941V25.043C150.941 25.4714 150.996 25.7995 151.105 26.0273C151.224 26.2552 151.397 26.4147 151.625 26.5059C151.853 26.5879 152.14 26.6289 152.486 26.6289C152.732 26.6289 152.951 26.6198 153.143 26.6016C153.343 26.5742 153.512 26.5469 153.648 26.5195L153.662 29.418C153.325 29.5273 152.96 29.6139 152.568 29.6777C152.176 29.7415 151.743 29.7734 151.27 29.7734C150.404 29.7734 149.647 29.6322 149 29.3496C148.362 29.0579 147.87 28.5931 147.523 27.9551C147.177 27.3171 147.004 26.4785 147.004 25.4395V11.0566Z" fill="white"/>
<defs>
<clipPath id="clip0_1_128">
<rect width="40" height="40" fill="white" transform="translate(0.5)"/>
</clipPath>
</defs>
</svg>
